<svg xmlns="http://www.w3.org/2000/svg" xmlns:xlink="http://www.w3.org/1999/xlink" width="500" zoomAndPan="magnify" viewBox="0 0 375 374.999991" height="500" preserveAspectRatio="xMidYMid meet" version="1.0"><defs><g/></defs><g fill="#000000" fill-opacity="1"><g transform="translate(143.434654, 195.657129)"><g><path d="M 8.078125 -6.285156 C 14.960938 -1.347656 23.34375 1.496094 34.863281 1.496094 C 68.679688 1.496094 76.757812 -18.851562 76.757812 -40.699219 C 76.757812 -61.496094 77.058594 -97.109375 77.957031 -111.472656 C 68.828125 -109.976562 59.550781 -110.125 49.824219 -111.472656 C 50.722656 -97.109375 51.023438 -64.488281 51.023438 -40.101562 C 51.023438 -22.894531 40.699219 -17.804688 29.925781 -17.804688 C 19.75 -17.804688 11.074219 -22.292969 8.078125 -26.632812 C 9.277344 -19.152344 9.277344 -12.417969 8.078125 -6.285156 Z M 8.078125 -6.285156 "/></g></g></g><g fill="#000000" fill-opacity="1"><g transform="translate(98.094496, 334.113499)"><g><path d="M 138.105469 0 L 165.9375 0 C 163.84375 -27.679688 163.84375 -82.746094 165.488281 -111.472656 C 155.761719 -110.125 136.761719 -110.125 127.035156 -111.472656 C 115.214844 -81.398438 102.792969 -52.371094 88.878906 -23.492188 C 75.414062 -52.21875 63.292969 -81.546875 52.070312 -111.472656 C 42.644531 -110.125 22.894531 -110.125 12.867188 -111.472656 C 14.664062 -83.492188 14.664062 -27.980469 12.867188 0 L 39.949219 0 C 38.753906 -20.050781 38.304688 -58.054688 38.453125 -87.234375 C 52.21875 -58.503906 65.089844 -29.476562 76.757812 0.300781 L 100.550781 0.300781 C 112.519531 -29.328125 125.386719 -58.804688 139.304688 -87.832031 C 139.753906 -54.015625 139.304688 -19.453125 138.105469 0 Z M 138.105469 0 "/></g></g></g><path fill="#000000" d="M 89.230469 346.625 L 89.230469 342.875 C 89.230469 342.769531 89.277344 342.683594 89.375 342.609375 C 89.46875 342.535156 89.585938 342.5 89.71875 342.5 C 89.855469 342.5 89.96875 342.535156 90.066406 342.609375 C 90.160156 342.683594 90.210938 342.769531 90.210938 342.875 L 90.210938 346.625 C 90.210938 346.726562 90.160156 346.816406 90.066406 346.886719 C 89.96875 346.960938 89.855469 347 89.71875 347 C 89.585938 347 89.46875 346.960938 89.375 346.886719 C 89.277344 346.816406 89.230469 346.726562 89.230469 346.625 Z M 89.230469 341.375 L 89.230469 337.625 C 89.230469 337.519531 89.277344 337.433594 89.375 337.359375 C 89.46875 337.285156 89.585938 337.25 89.71875 337.25 C 89.855469 337.25 89.96875 337.285156 90.066406 337.359375 C 90.160156 337.433594 90.210938 337.519531 90.210938 337.625 L 90.210938 341.375 C 90.210938 341.476562 90.160156 341.566406 90.066406 341.640625 C 89.96875 341.710938 89.855469 341.75 89.71875 341.75 C 89.585938 341.75 89.46875 341.710938 89.375 341.640625 C 89.277344 341.566406 89.230469 341.476562 89.230469 341.375 Z M 89.230469 336.125 L 89.230469 332.375 C 89.230469 332.273438 89.277344 332.183594 89.375 332.109375 C 89.46875 332.035156 89.585938 332 89.71875 332 C 89.855469 332 89.96875 332.035156 90.066406 332.109375 C 90.160156 332.183594 90.210938 332.273438 90.210938 332.375 L 90.210938 336.125 C 90.210938 336.226562 90.160156 336.316406 90.066406 336.390625 C 89.96875 336.464844 89.855469 336.5 89.71875 336.5 C 89.585938 336.5 89.46875 336.464844 89.375 336.390625 C 89.277344 336.316406 89.230469 336.226562 89.230469 336.125 Z M 89.230469 330.875 L 89.230469 327.125 C 89.230469 327.023438 89.277344 326.933594 89.375 326.859375 C 89.46875 326.789062 89.585938 326.75 89.71875 326.75 C 89.855469 326.75 89.96875 326.789062 90.066406 326.859375 C 90.160156 326.933594 90.210938 327.023438 90.210938 327.125 L 90.210938 330.875 C 90.210938 330.980469 90.160156 331.066406 90.066406 331.140625 C 89.96875 331.214844 89.855469 331.25 89.71875 331.25 C 89.585938 331.25 89.46875 331.214844 89.375 331.140625 C 89.277344 331.066406 89.230469 330.980469 89.230469 330.875 Z M 89.230469 325.625 L 89.230469 321.875 C 89.230469 321.773438 89.277344 321.683594 89.375 321.613281 C 89.46875 321.539062 89.585938 321.5 89.71875 321.5 C 89.855469 321.5 89.96875 321.539062 90.066406 321.613281 C 90.160156 321.683594 90.210938 321.773438 90.210938 321.875 L 90.210938 325.625 C 90.210938 325.730469 90.160156 325.816406 90.066406 325.890625 C 89.96875 325.964844 89.855469 326 89.71875 326 C 89.585938 326 89.46875 325.964844 89.375 325.890625 C 89.277344 325.816406 89.230469 325.730469 89.230469 325.625 Z M 89.230469 320.375 L 89.230469 316.628906 C 89.230469 316.523438 89.277344 316.433594 89.375 316.363281 C 89.46875 316.289062 89.585938 316.253906 89.71875 316.253906 C 89.855469 316.253906 89.96875 316.289062 90.066406 316.363281 C 90.160156 316.433594 90.210938 316.523438 90.210938 316.628906 L 90.210938 320.375 C 90.210938 320.480469 90.160156 320.570312 90.066406 320.640625 C 89.96875 320.714844 89.855469 320.75 89.71875 320.75 C 89.585938 320.75 89.46875 320.714844 89.375 320.640625 C 89.277344 320.570312 89.230469 320.480469 89.230469 320.375 Z M 89.230469 315.128906 L 89.230469 311.378906 C 89.230469 311.273438 89.277344 311.1875 89.375 311.113281 C 89.46875 311.039062 89.585938 311.003906 89.71875 311.003906 C 89.855469 311.003906 89.96875 311.039062 90.066406 311.113281 C 90.160156 311.1875 90.210938 311.273438 90.210938 311.378906 L 90.210938 315.128906 C 90.210938 315.230469 90.160156 315.320312 90.066406 315.390625 C 89.96875 315.464844 89.855469 315.503906 89.71875 315.503906 C 89.585938 315.503906 89.46875 315.464844 89.375 315.390625 C 89.277344 315.320312 89.230469 315.230469 89.230469 315.128906 Z M 89.230469 309.878906 L 89.230469 306.128906 C 89.230469 306.023438 89.277344 305.9375 89.375 305.863281 C 89.46875 305.789062 89.585938 305.753906 89.71875 305.753906 C 89.855469 305.753906 89.96875 305.789062 90.066406 305.863281 C 90.160156 305.9375 90.210938 306.023438 90.210938 306.128906 L 90.210938 309.878906 C 90.210938 309.980469 90.160156 310.070312 90.066406 310.144531 C 89.96875 310.214844 89.855469 310.253906 89.71875 310.253906 C 89.585938 310.253906 89.46875 310.214844 89.375 310.144531 C 89.277344 310.070312 89.230469 309.980469 89.230469 309.878906 Z M 89.230469 304.628906 L 89.230469 300.878906 C 89.230469 300.777344 89.277344 300.6875 89.375 300.613281 C 89.46875 300.539062 89.585938 300.503906 89.71875 300.503906 C 89.855469 300.503906 89.96875 300.539062 90.066406 300.613281 C 90.160156 300.6875 90.210938 300.777344 90.210938 300.878906 L 90.210938 304.628906 C 90.210938 304.730469 90.160156 304.820312 90.066406 304.894531 C 89.96875 304.96875 89.855469 305.003906 89.71875 305.003906 C 89.585938 305.003906 89.46875 304.96875 89.375 304.894531 C 89.277344 304.820312 89.230469 304.730469 89.230469 304.628906 Z M 89.230469 299.378906 L 89.230469 295.628906 C 89.230469 295.527344 89.277344 295.4375 89.375 295.363281 C 89.46875 295.292969 89.585938 295.253906 89.71875 295.253906 C 89.855469 295.253906 89.96875 295.292969 90.066406 295.363281 C 90.160156 295.4375 90.210938 295.527344 90.210938 295.628906 L 90.210938 299.378906 C 90.210938 299.484375 90.160156 299.570312 90.066406 299.644531 C 89.96875 299.71875 89.855469 299.753906 89.71875 299.753906 C 89.585938 299.753906 89.46875 299.71875 89.375 299.644531 C 89.277344 299.570312 89.230469 299.484375 89.230469 299.378906 Z M 89.230469 294.128906 L 89.230469 290.378906 C 89.230469 290.277344 89.277344 290.1875 89.375 290.117188 C 89.46875 290.042969 89.585938 290.003906 89.71875 290.003906 C 89.855469 290.003906 89.96875 290.042969 90.066406 290.117188 C 90.160156 290.1875 90.210938 290.277344 90.210938 290.378906 L 90.210938 294.128906 C 90.210938 294.234375 90.160156 294.320312 90.066406 294.394531 C 89.96875 294.46875 89.855469 294.503906 89.71875 294.503906 C 89.585938 294.503906 89.46875 294.46875 89.375 294.394531 C 89.277344 294.320312 89.230469 294.234375 89.230469 294.128906 Z M 89.230469 288.878906 L 89.230469 285.132812 C 89.230469 285.027344 89.277344 284.9375 89.375 284.867188 C 89.46875 284.792969 89.585938 284.757812 89.71875 284.757812 C 89.855469 284.757812 89.96875 284.792969 90.066406 284.867188 C 90.160156 284.9375 90.210938 285.027344 90.210938 285.132812 L 90.210938 288.878906 C 90.210938 288.984375 90.160156 289.074219 90.066406 289.144531 C 89.96875 289.21875 89.855469 289.253906 89.71875 289.253906 C 89.585938 289.253906 89.46875 289.21875 89.375 289.144531 C 89.277344 289.074219 89.230469 288.984375 89.230469 288.878906 Z M 89.230469 283.632812 L 89.230469 279.882812 C 89.230469 279.777344 89.277344 279.691406 89.375 279.617188 C 89.46875 279.542969 89.585938 279.507812 89.71875 279.507812 C 89.855469 279.507812 89.96875 279.542969 90.066406 279.617188 C 90.160156 279.691406 90.210938 279.777344 90.210938 279.882812 L 90.210938 283.632812 C 90.210938 283.734375 90.160156 283.824219 90.066406 283.894531 C 89.96875 283.96875 89.855469 284.007812 89.71875 284.007812 C 89.585938 284.007812 89.46875 283.96875 89.375 283.894531 C 89.277344 283.824219 89.230469 283.734375 89.230469 283.632812 Z M 89.230469 278.382812 L 89.230469 274.632812 C 89.230469 274.527344 89.277344 274.441406 89.375 274.367188 C 89.46875 274.292969 89.585938 274.257812 89.71875 274.257812 C 89.855469 274.257812 89.96875 274.292969 90.066406 274.367188 C 90.160156 274.441406 90.210938 274.527344 90.210938 274.632812 L 90.210938 278.382812 C 90.210938 278.484375 90.160156 278.574219 90.066406 278.648438 C 89.96875 278.71875 89.855469 278.757812 89.71875 278.757812 C 89.585938 278.757812 89.46875 278.71875 89.375 278.648438 C 89.277344 278.574219 89.230469 278.484375 89.230469 278.382812 Z M 89.230469 273.132812 L 89.230469 269.382812 C 89.230469 269.28125 89.277344 269.191406 89.375 269.117188 C 89.46875 269.042969 89.585938 269.007812 89.71875 269.007812 C 89.855469 269.007812 89.96875 269.042969 90.066406 269.117188 C 90.160156 269.191406 90.210938 269.28125 90.210938 269.382812 L 90.210938 273.132812 C 90.210938 273.234375 90.160156 273.324219 90.066406 273.398438 C 89.96875 273.472656 89.855469 273.507812 89.71875 273.507812 C 89.585938 273.507812 89.46875 273.472656 89.375 273.398438 C 89.277344 273.324219 89.230469 273.234375 89.230469 273.132812 Z M 89.230469 267.882812 L 89.230469 264.132812 C 89.230469 264.03125 89.277344 263.941406 89.375 263.867188 C 89.46875 263.796875 89.585938 263.757812 89.71875 263.757812 C 89.855469 263.757812 89.96875 263.796875 90.066406 263.867188 C 90.160156 263.941406 90.210938 264.03125 90.210938 264.132812 L 90.210938 267.882812 C 90.210938 267.988281 90.160156 268.074219 90.066406 268.148438 C 89.96875 268.222656 89.855469 268.257812 89.71875 268.257812 C 89.585938 268.257812 89.46875 268.222656 89.375 268.148438 C 89.277344 268.074219 89.230469 267.988281 89.230469 267.882812 Z M 89.230469 262.632812 L 89.230469 258.882812 C 89.230469 258.78125 89.277344 258.691406 89.375 258.617188 C 89.46875 258.546875 89.585938 258.507812 89.71875 258.507812 C 89.855469 258.507812 89.96875 258.546875 90.066406 258.617188 C 90.160156 258.691406 90.210938 258.78125 90.210938 258.882812 L 90.210938 262.632812 C 90.210938 262.738281 90.160156 262.824219 90.066406 262.898438 C 89.96875 262.972656 89.855469 263.007812 89.71875 263.007812 C 89.585938 263.007812 89.46875 262.972656 89.375 262.898438 C 89.277344 262.824219 89.230469 262.738281 89.230469 262.632812 Z M 89.230469 257.382812 L 89.230469 253.636719 C 89.230469 253.53125 89.277344 253.441406 89.375 253.371094 C 89.46875 253.296875 89.585938 253.261719 89.71875 253.261719 C 89.855469 253.261719 89.96875 253.296875 90.066406 253.371094 C 90.160156 253.441406 90.210938 253.53125 90.210938 253.636719 L 90.210938 257.382812 C 90.210938 257.488281 90.160156 257.578125 90.066406 257.648438 C 89.96875 257.722656 89.855469 257.757812 89.71875 257.757812 C 89.585938 257.757812 89.46875 257.722656 89.375 257.648438 C 89.277344 257.578125 89.230469 257.488281 89.230469 257.382812 Z M 89.230469 252.136719 L 89.230469 248.386719 C 89.230469 248.28125 89.277344 248.195312 89.375 248.121094 C 89.46875 248.046875 89.585938 248.011719 89.71875 248.011719 C 89.855469 248.011719 89.96875 248.046875 90.066406 248.121094 C 90.160156 248.195312 90.210938 248.28125 90.210938 248.386719 L 90.210938 252.136719 C 90.210938 252.238281 90.160156 252.328125 90.066406 252.398438 C 89.96875 252.472656 89.855469 252.511719 89.71875 252.511719 C 89.585938 252.511719 89.46875 252.472656 89.375 252.398438 C 89.277344 252.328125 89.230469 252.238281 89.230469 252.136719 Z M 89.230469 246.886719 L 89.230469 243.136719 C 89.230469 243.03125 89.277344 242.945312 89.375 242.871094 C 89.46875 242.796875 89.585938 242.761719 89.71875 242.761719 C 89.855469 242.761719 89.96875 242.796875 90.066406 242.871094 C 90.160156 242.945312 90.210938 243.03125 90.210938 243.136719 L 90.210938 246.886719 C 90.210938 246.988281 90.160156 247.078125 90.066406 247.152344 C 89.96875 247.222656 89.855469 247.261719 89.71875 247.261719 C 89.585938 247.261719 89.46875 247.222656 89.375 247.152344 C 89.277344 247.078125 89.230469 246.988281 89.230469 246.886719 Z M 89.230469 241.636719 L 89.230469 237.886719 C 89.230469 237.785156 89.277344 237.695312 89.375 237.621094 C 89.46875 237.546875 89.585938 237.511719 89.71875 237.511719 C 89.855469 237.511719 89.96875 237.546875 90.066406 237.621094 C 90.160156 237.695312 90.210938 237.785156 90.210938 237.886719 L 90.210938 241.636719 C 90.210938 241.738281 90.160156 241.828125 90.066406 241.902344 C 89.96875 241.976562 89.855469 242.011719 89.71875 242.011719 C 89.585938 242.011719 89.46875 241.976562 89.375 241.902344 C 89.277344 241.828125 89.230469 241.738281 89.230469 241.636719 Z M 89.230469 236.386719 L 89.230469 232.636719 C 89.230469 232.535156 89.277344 232.445312 89.375 232.371094 C 89.46875 232.300781 89.585938 232.261719 89.71875 232.261719 C 89.855469 232.261719 89.96875 232.300781 90.066406 232.371094 C 90.160156 232.445312 90.210938 232.535156 90.210938 232.636719 L 90.210938 236.386719 C 90.210938 236.492188 90.160156 236.578125 90.066406 236.652344 C 89.96875 236.726562 89.855469 236.761719 89.71875 236.761719 C 89.585938 236.761719 89.46875 236.726562 89.375 236.652344 C 89.277344 236.578125 89.230469 236.492188 89.230469 236.386719 Z M 89.230469 231.136719 L 89.230469 227.386719 C 89.230469 227.285156 89.277344 227.195312 89.375 227.121094 C 89.46875 227.050781 89.585938 227.011719 89.71875 227.011719 C 89.855469 227.011719 89.96875 227.050781 90.066406 227.121094 C 90.160156 227.195312 90.210938 227.285156 90.210938 227.386719 L 90.210938 231.136719 C 90.210938 231.242188 90.160156 231.328125 90.066406 231.402344 C 89.96875 231.476562 89.855469 231.511719 89.71875 231.511719 C 89.585938 231.511719 89.46875 231.476562 89.375 231.402344 C 89.277344 231.328125 89.230469 231.242188 89.230469 231.136719 Z M 89.230469 225.886719 L 89.230469 222.140625 C 89.230469 222.035156 89.277344 221.945312 89.375 221.875 C 89.46875 221.800781 89.585938 221.765625 89.71875 221.765625 C 89.855469 221.765625 89.96875 221.800781 90.066406 221.875 C 90.160156 221.945312 90.210938 222.035156 90.210938 222.140625 L 90.210938 225.886719 C 90.210938 225.992188 90.160156 226.082031 90.066406 226.152344 C 89.96875 226.226562 89.855469 226.261719 89.71875 226.261719 C 89.585938 226.261719 89.46875 226.226562 89.375 226.152344 C 89.277344 226.082031 89.230469 225.992188 89.230469 225.886719 Z M 89.230469 220.640625 L 89.230469 216.890625 C 89.230469 216.785156 89.277344 216.699219 89.375 216.625 C 89.46875 216.550781 89.585938 216.515625 89.71875 216.515625 C 89.855469 216.515625 89.96875 216.550781 90.066406 216.625 C 90.160156 216.699219 90.210938 216.785156 90.210938 216.890625 L 90.210938 220.640625 C 90.210938 220.742188 90.160156 220.832031 90.066406 220.902344 C 89.96875 220.976562 89.855469 221.015625 89.71875 221.015625 C 89.585938 221.015625 89.46875 220.976562 89.375 220.902344 C 89.277344 220.832031 89.230469 220.742188 89.230469 220.640625 Z M 89.230469 215.390625 L 89.230469 211.640625 C 89.230469 211.535156 89.277344 211.449219 89.375 211.375 C 89.46875 211.300781 89.585938 211.265625 89.71875 211.265625 C 89.855469 211.265625 89.96875 211.300781 90.066406 211.375 C 90.160156 211.449219 90.210938 211.535156 90.210938 211.640625 L 90.210938 215.390625 C 90.210938 215.492188 90.160156 215.582031 90.066406 215.65625 C 89.96875 215.726562 89.855469 215.765625 89.71875 215.765625 C 89.585938 215.765625 89.46875 215.726562 89.375 215.65625 C 89.277344 215.582031 89.230469 215.492188 89.230469 215.390625 Z M 89.230469 210.140625 L 89.230469 206.390625 C 89.230469 206.285156 89.277344 206.199219 89.375 206.125 C 89.46875 206.050781 89.585938 206.015625 89.71875 206.015625 C 89.855469 206.015625 89.96875 206.050781 90.066406 206.125 C 90.160156 206.199219 90.210938 206.285156 90.210938 206.390625 L 90.210938 210.140625 C 90.210938 210.242188 90.160156 210.332031 90.066406 210.40625 C 89.96875 210.480469 89.855469 210.515625 89.71875 210.515625 C 89.585938 210.515625 89.46875 210.480469 89.375 210.40625 C 89.277344 210.332031 89.230469 210.242188 89.230469 210.140625 Z M 89.230469 204.890625 L 89.230469 201.140625 C 89.230469 201.039062 89.277344 200.949219 89.375 200.875 C 89.46875 200.804688 89.585938 200.765625 89.71875 200.765625 C 89.855469 200.765625 89.96875 200.804688 90.066406 200.875 C 90.160156 200.949219 90.210938 201.039062 90.210938 201.140625 L 90.210938 204.890625 C 90.210938 204.996094 90.160156 205.082031 90.066406 205.15625 C 89.96875 205.230469 89.855469 205.265625 89.71875 205.265625 C 89.585938 205.265625 89.46875 205.230469 89.375 205.15625 C 89.277344 205.082031 89.230469 204.996094 89.230469 204.890625 Z M 89.230469 199.640625 L 89.230469 195.890625 C 89.230469 195.789062 89.277344 195.699219 89.375 195.625 C 89.46875 195.554688 89.585938 195.515625 89.71875 195.515625 C 89.855469 195.515625 89.96875 195.554688 90.066406 195.625 C 90.160156 195.699219 90.210938 195.789062 90.210938 195.890625 L 90.210938 199.640625 C 90.210938 199.746094 90.160156 199.832031 90.066406 199.90625 C 89.96875 199.980469 89.855469 200.015625 89.71875 200.015625 C 89.585938 200.015625 89.46875 199.980469 89.375 199.90625 C 89.277344 199.832031 89.230469 199.746094 89.230469 199.640625 Z M 89.230469 194.390625 L 89.230469 190.640625 C 89.230469 190.539062 89.277344 190.449219 89.375 190.378906 C 89.46875 190.304688 89.585938 190.269531 89.71875 190.269531 C 89.855469 190.269531 89.96875 190.304688 90.066406 190.378906 C 90.160156 190.449219 90.210938 190.539062 90.210938 190.640625 L 90.210938 194.390625 C 90.210938 194.496094 90.160156 194.585938 90.066406 194.65625 C 89.96875 194.730469 89.855469 194.765625 89.71875 194.765625 C 89.585938 194.765625 89.46875 194.730469 89.375 194.65625 C 89.277344 194.585938 89.230469 194.496094 89.230469 194.390625 Z M 89.230469 189.144531 L 89.230469 185.394531 C 89.230469 185.289062 89.277344 185.203125 89.375 185.128906 C 89.46875 185.054688 89.585938 185.019531 89.71875 185.019531 C 89.855469 185.019531 89.96875 185.054688 90.066406 185.128906 C 90.160156 185.203125 90.210938 185.289062 90.210938 185.394531 L 90.210938 189.144531 C 90.210938 189.246094 90.160156 189.335938 90.066406 189.40625 C 89.96875 189.480469 89.855469 189.519531 89.71875 189.519531 C 89.585938 189.519531 89.46875 189.480469 89.375 189.40625 C 89.277344 189.335938 89.230469 189.246094 89.230469 189.144531 Z M 89.230469 183.894531 L 89.230469 180.144531 C 89.230469 180.039062 89.277344 179.953125 89.375 179.878906 C 89.46875 179.804688 89.585938 179.769531 89.71875 179.769531 C 89.855469 179.769531 89.96875 179.804688 90.066406 179.878906 C 90.160156 179.953125 90.210938 180.039062 90.210938 180.144531 L 90.210938 183.894531 C 90.210938 183.996094 90.160156 184.085938 90.066406 184.160156 C 89.96875 184.230469 89.855469 184.269531 89.71875 184.269531 C 89.585938 184.269531 89.46875 184.230469 89.375 184.160156 C 89.277344 184.085938 89.230469 183.996094 89.230469 183.894531 Z M 89.230469 178.644531 L 89.230469 174.894531 C 89.230469 174.789062 89.277344 174.703125 89.375 174.628906 C 89.46875 174.554688 89.585938 174.519531 89.71875 174.519531 C 89.855469 174.519531 89.96875 174.554688 90.066406 174.628906 C 90.160156 174.703125 90.210938 174.789062 90.210938 174.894531 L 90.210938 178.644531 C 90.210938 178.746094 90.160156 178.835938 90.066406 178.910156 C 89.96875 178.980469 89.855469 179.019531 89.71875 179.019531 C 89.585938 179.019531 89.46875 178.980469 89.375 178.910156 C 89.277344 178.835938 89.230469 178.746094 89.230469 178.644531 Z M 89.230469 173.394531 L 89.230469 169.644531 C 89.230469 169.542969 89.277344 169.453125 89.375 169.378906 C 89.46875 169.308594 89.585938 169.269531 89.71875 169.269531 C 89.855469 169.269531 89.96875 169.308594 90.066406 169.378906 C 90.160156 169.453125 90.210938 169.542969 90.210938 169.644531 L 90.210938 173.394531 C 90.210938 173.5 90.160156 173.585938 90.066406 173.660156 C 89.96875 173.734375 89.855469 173.769531 89.71875 173.769531 C 89.585938 173.769531 89.46875 173.734375 89.375 173.660156 C 89.277344 173.585938 89.230469 173.5 89.230469 173.394531 Z M 89.230469 168.144531 L 89.230469 164.394531 C 89.230469 164.292969 89.277344 164.203125 89.375 164.128906 C 89.46875 164.058594 89.585938 164.019531 89.71875 164.019531 C 89.855469 164.019531 89.96875 164.058594 90.066406 164.128906 C 90.160156 164.203125 90.210938 164.292969 90.210938 164.394531 L 90.210938 168.144531 C 90.210938 168.25 90.160156 168.335938 90.066406 168.410156 C 89.96875 168.484375 89.855469 168.519531 89.71875 168.519531 C 89.585938 168.519531 89.46875 168.484375 89.375 168.410156 C 89.277344 168.335938 89.230469 168.25 89.230469 168.144531 Z M 89.230469 162.894531 L 89.230469 159.144531 C 89.230469 159.042969 89.277344 158.953125 89.375 158.882812 C 89.46875 158.808594 89.585938 158.769531 89.71875 158.769531 C 89.855469 158.769531 89.96875 158.808594 90.066406 158.882812 C 90.160156 158.953125 90.210938 159.042969 90.210938 159.144531 L 90.210938 162.894531 C 90.210938 163 90.160156 163.085938 90.066406 163.160156 C 89.96875 163.234375 89.855469 163.269531 89.71875 163.269531 C 89.585938 163.269531 89.46875 163.234375 89.375 163.160156 C 89.277344 163.085938 89.230469 163 89.230469 162.894531 Z M 89.230469 157.648438 L 89.230469 153.898438 C 89.230469 153.792969 89.277344 153.707031 89.375 153.632812 C 89.46875 153.558594 89.585938 153.523438 89.71875 153.523438 C 89.855469 153.523438 89.96875 153.558594 90.066406 153.632812 C 90.160156 153.707031 90.210938 153.792969 90.210938 153.898438 L 90.210938 157.648438 C 90.210938 157.75 90.160156 157.839844 90.066406 157.910156 C 89.96875 157.984375 89.855469 158.023438 89.71875 158.023438 C 89.585938 158.023438 89.46875 157.984375 89.375 157.910156 C 89.277344 157.839844 89.230469 157.75 89.230469 157.648438 Z M 89.230469 152.398438 L 89.230469 148.648438 C 89.230469 148.542969 89.277344 148.457031 89.375 148.382812 C 89.46875 148.308594 89.585938 148.273438 89.71875 148.273438 C 89.855469 148.273438 89.96875 148.308594 90.066406 148.382812 C 90.160156 148.457031 90.210938 148.542969 90.210938 148.648438 L 90.210938 152.398438 C 90.210938 152.5 90.160156 152.589844 90.066406 152.664062 C 89.96875 152.734375 89.855469 152.773438 89.71875 152.773438 C 89.585938 152.773438 89.46875 152.734375 89.375 152.664062 C 89.277344 152.589844 89.230469 152.5 89.230469 152.398438 Z M 89.230469 147.148438 L 89.230469 143.398438 C 89.230469 143.292969 89.277344 143.207031 89.375 143.132812 C 89.46875 143.058594 89.585938 143.023438 89.71875 143.023438 C 89.855469 143.023438 89.96875 143.058594 90.066406 143.132812 C 90.160156 143.207031 90.210938 143.292969 90.210938 143.398438 L 90.210938 147.148438 C 90.210938 147.25 90.160156 147.339844 90.066406 147.414062 C 89.96875 147.484375 89.855469 147.523438 89.71875 147.523438 C 89.585938 147.523438 89.46875 147.484375 89.375 147.414062 C 89.277344 147.339844 89.230469 147.25 89.230469 147.148438 Z M 89.230469 141.898438 L 89.230469 138.148438 C 89.230469 138.046875 89.277344 137.957031 89.375 137.882812 C 89.46875 137.8125 89.585938 137.773438 89.71875 137.773438 C 89.855469 137.773438 89.96875 137.8125 90.066406 137.882812 C 90.160156 137.957031 90.210938 138.046875 90.210938 138.148438 L 90.210938 141.898438 C 90.210938 142.003906 90.160156 142.089844 90.066406 142.164062 C 89.96875 142.238281 89.855469 142.273438 89.71875 142.273438 C 89.585938 142.273438 89.46875 142.238281 89.375 142.164062 C 89.277344 142.089844 89.230469 142.003906 89.230469 141.898438 Z M 89.230469 136.648438 L 89.230469 132.898438 C 89.230469 132.796875 89.277344 132.707031 89.375 132.632812 C 89.46875 132.5625 89.585938 132.523438 89.71875 132.523438 C 89.855469 132.523438 89.96875 132.5625 90.066406 132.632812 C 90.160156 132.707031 90.210938 132.796875 90.210938 132.898438 L 90.210938 136.648438 C 90.210938 136.753906 90.160156 136.839844 90.066406 136.914062 C 89.96875 136.988281 89.855469 137.023438 89.71875 137.023438 C 89.585938 137.023438 89.46875 136.988281 89.375 136.914062 C 89.277344 136.839844 89.230469 136.753906 89.230469 136.648438 Z M 89.230469 131.398438 L 89.230469 127.648438 C 89.230469 127.546875 89.277344 127.457031 89.375 127.386719 C 89.46875 127.3125 89.585938 127.273438 89.71875 127.273438 C 89.855469 127.273438 89.96875 127.3125 90.066406 127.386719 C 90.160156 127.457031 90.210938 127.546875 90.210938 127.648438 L 90.210938 131.398438 C 90.210938 131.503906 90.160156 131.589844 90.066406 131.664062 C 89.96875 131.738281 89.855469 131.773438 89.71875 131.773438 C 89.585938 131.773438 89.46875 131.738281 89.375 131.664062 C 89.277344 131.589844 89.230469 131.503906 89.230469 131.398438 Z M 89.230469 126.152344 L 89.230469 122.402344 C 89.230469 122.296875 89.277344 122.210938 89.375 122.136719 C 89.46875 122.0625 89.585938 122.027344 89.71875 122.027344 C 89.855469 122.027344 89.96875 122.0625 90.066406 122.136719 C 90.160156 122.210938 90.210938 122.296875 90.210938 122.402344 L 90.210938 126.152344 C 90.210938 126.253906 90.160156 126.34375 90.066406 126.414062 C 89.96875 126.488281 89.855469 126.527344 89.71875 126.527344 C 89.585938 126.527344 89.46875 126.488281 89.375 126.414062 C 89.277344 126.34375 89.230469 126.253906 89.230469 126.152344 Z M 89.230469 120.902344 L 89.230469 117.152344 C 89.230469 117.046875 89.277344 116.960938 89.375 116.886719 C 89.46875 116.8125 89.585938 116.777344 89.71875 116.777344 C 89.855469 116.777344 89.96875 116.8125 90.066406 116.886719 C 90.160156 116.960938 90.210938 117.046875 90.210938 117.152344 L 90.210938 120.902344 C 90.210938 121.003906 90.160156 121.09375 90.066406 121.167969 C 89.96875 121.238281 89.855469 121.277344 89.71875 121.277344 C 89.585938 121.277344 89.46875 121.238281 89.375 121.167969 C 89.277344 121.09375 89.230469 121.003906 89.230469 120.902344 Z M 89.230469 115.652344 L 89.230469 111.902344 C 89.230469 111.796875 89.277344 111.710938 89.375 111.636719 C 89.46875 111.5625 89.585938 111.527344 89.71875 111.527344 C 89.855469 111.527344 89.96875 111.5625 90.066406 111.636719 C 90.160156 111.710938 90.210938 111.796875 90.210938 111.902344 L 90.210938 115.652344 C 90.210938 115.753906 90.160156 115.84375 90.066406 115.917969 C 89.96875 115.988281 89.855469 116.027344 89.71875 116.027344 C 89.585938 116.027344 89.46875 115.988281 89.375 115.917969 C 89.277344 115.84375 89.230469 115.753906 89.230469 115.652344 Z M 89.230469 110.402344 L 89.230469 106.652344 C 89.230469 106.550781 89.277344 106.460938 89.375 106.386719 C 89.46875 106.316406 89.585938 106.277344 89.71875 106.277344 C 89.855469 106.277344 89.96875 106.316406 90.066406 106.386719 C 90.160156 106.460938 90.210938 106.550781 90.210938 106.652344 L 90.210938 110.402344 C 90.210938 110.507812 90.160156 110.59375 90.066406 110.667969 C 89.96875 110.742188 89.855469 110.777344 89.71875 110.777344 C 89.585938 110.777344 89.46875 110.742188 89.375 110.667969 C 89.277344 110.59375 89.230469 110.507812 89.230469 110.402344 Z M 89.230469 105.152344 L 89.230469 101.402344 C 89.230469 101.300781 89.277344 101.210938 89.375 101.136719 C 89.46875 101.066406 89.585938 101.027344 89.71875 101.027344 C 89.855469 101.027344 89.96875 101.066406 90.066406 101.136719 C 90.160156 101.210938 90.210938 101.300781 90.210938 101.402344 L 90.210938 105.152344 C 90.210938 105.257812 90.160156 105.34375 90.066406 105.417969 C 89.96875 105.492188 89.855469 105.527344 89.71875 105.527344 C 89.585938 105.527344 89.46875 105.492188 89.375 105.417969 C 89.277344 105.34375 89.230469 105.257812 89.230469 105.152344 Z M 89.230469 99.902344 L 89.230469 96.152344 C 89.230469 96.050781 89.277344 95.960938 89.375 95.890625 C 89.46875 95.816406 89.585938 95.777344 89.71875 95.777344 C 89.855469 95.777344 89.96875 95.816406 90.066406 95.890625 C 90.160156 95.960938 90.210938 96.050781 90.210938 96.152344 L 90.210938 99.902344 C 90.210938 100.007812 90.160156 100.09375 90.066406 100.167969 C 89.96875 100.242188 89.855469 100.277344 89.71875 100.277344 C 89.585938 100.277344 89.46875 100.242188 89.375 100.167969 C 89.277344 100.09375 89.230469 100.007812 89.230469 99.902344 Z M 89.230469 94.652344 L 89.230469 90.90625 C 89.230469 90.800781 89.277344 90.710938 89.375 90.640625 C 89.46875 90.566406 89.585938 90.53125 89.71875 90.53125 C 89.855469 90.53125 89.96875 90.566406 90.066406 90.640625 C 90.160156 90.710938 90.210938 90.800781 90.210938 90.90625 L 90.210938 94.652344 C 90.210938 94.757812 90.160156 94.847656 90.066406 94.917969 C 89.96875 94.992188 89.855469 95.027344 89.71875 95.027344 C 89.585938 95.027344 89.46875 94.992188 89.375 94.917969 C 89.277344 94.847656 89.230469 94.757812 89.230469 94.652344 Z M 89.230469 89.40625 L 89.230469 85.65625 C 89.230469 85.550781 89.277344 85.464844 89.375 85.390625 C 89.46875 85.316406 89.585938 85.28125 89.71875 85.28125 C 89.855469 85.28125 89.96875 85.316406 90.066406 85.390625 C 90.160156 85.464844 90.210938 85.550781 90.210938 85.65625 L 90.210938 89.40625 C 90.210938 89.507812 90.160156 89.597656 90.066406 89.671875 C 89.96875 89.742188 89.855469 89.78125 89.71875 89.78125 C 89.585938 89.78125 89.46875 89.742188 89.375 89.671875 C 89.277344 89.597656 89.230469 89.507812 89.230469 89.40625 Z M 89.230469 84.15625 L 89.230469 80.40625 C 89.230469 80.300781 89.277344 80.214844 89.375 80.140625 C 89.46875 80.066406 89.585938 80.03125 89.71875 80.03125 C 89.855469 80.03125 89.96875 80.066406 90.066406 80.140625 C 90.160156 80.214844 90.210938 80.300781 90.210938 80.40625 L 90.210938 84.15625 C 90.210938 84.257812 90.160156 84.347656 90.066406 84.421875 C 89.96875 84.492188 89.855469 84.53125 89.71875 84.53125 C 89.585938 84.53125 89.46875 84.492188 89.375 84.421875 C 89.277344 84.347656 89.230469 84.257812 89.230469 84.15625 Z M 89.230469 78.90625 L 89.230469 75.15625 C 89.230469 75.054688 89.277344 74.964844 89.375 74.890625 C 89.46875 74.816406 89.585938 74.78125 89.71875 74.78125 C 89.855469 74.78125 89.96875 74.816406 90.066406 74.890625 C 90.160156 74.964844 90.210938 75.054688 90.210938 75.15625 L 90.210938 78.90625 C 90.210938 79.011719 90.160156 79.097656 90.066406 79.171875 C 89.96875 79.246094 89.855469 79.28125 89.71875 79.28125 C 89.585938 79.28125 89.46875 79.246094 89.375 79.171875 C 89.277344 79.097656 89.230469 79.011719 89.230469 78.90625 Z M 89.230469 73.65625 L 89.230469 69.90625 C 89.230469 69.804688 89.277344 69.714844 89.375 69.640625 C 89.46875 69.570312 89.585938 69.53125 89.71875 69.53125 C 89.855469 69.53125 89.96875 69.570312 90.066406 69.640625 C 90.160156 69.714844 90.210938 69.804688 90.210938 69.90625 L 90.210938 73.65625 C 90.210938 73.761719 90.160156 73.847656 90.066406 73.921875 C 89.96875 73.996094 89.855469 74.03125 89.71875 74.03125 C 89.585938 74.03125 89.46875 73.996094 89.375 73.921875 C 89.277344 73.847656 89.230469 73.761719 89.230469 73.65625 Z M 89.230469 68.40625 L 89.230469 64.65625 C 89.230469 64.554688 89.277344 64.464844 89.375 64.394531 C 89.46875 64.320312 89.585938 64.28125 89.71875 64.28125 C 89.855469 64.28125 89.96875 64.320312 90.066406 64.394531 C 90.160156 64.464844 90.210938 64.554688 90.210938 64.65625 L 90.210938 68.40625 C 90.210938 68.511719 90.160156 68.597656 90.066406 68.671875 C 89.96875 68.746094 89.855469 68.78125 89.71875 68.78125 C 89.585938 68.78125 89.46875 68.746094 89.375 68.671875 C 89.277344 68.597656 89.230469 68.511719 89.230469 68.40625 Z M 89.230469 63.15625 L 89.230469 59.410156 C 89.230469 59.304688 89.277344 59.214844 89.375 59.144531 C 89.46875 59.070312 89.585938 59.035156 89.71875 59.035156 C 89.855469 59.035156 89.96875 59.070312 90.066406 59.144531 C 90.160156 59.214844 90.210938 59.304688 90.210938 59.410156 L 90.210938 63.15625 C 90.210938 63.261719 90.160156 63.351562 90.066406 63.421875 C 89.96875 63.496094 89.855469 63.53125 89.71875 63.53125 C 89.585938 63.53125 89.46875 63.496094 89.375 63.421875 C 89.277344 63.351562 89.230469 63.261719 89.230469 63.15625 Z M 89.230469 63.15625 " fill-opacity="1" fill-rule="nonzero"/><g fill="#000000" fill-opacity="1"><g transform="translate(72.406613, 347.004352)"><g><path d="M -3.71875 -7.421875 C -2.09375 -7.421875 -0.6875 -7.109375 0.5 -6.484375 C 1.6875 -5.859375 2.597656 -4.988281 3.234375 -3.875 C 3.867188 -2.769531 4.203125 -1.503906 4.234375 -0.078125 L 1.5625 -0.078125 C 1.488281 -1.484375 1 -2.597656 0.09375 -3.421875 C -0.800781 -4.242188 -2.101562 -4.65625 -3.8125 -4.65625 L -20.5625 -4.65625 L -20.5625 -7.421875 Z M -3.71875 -7.421875 "/></g></g></g><g fill="#000000" fill-opacity="1"><g transform="translate(72.406613, 336.625366)"><g><path d="M -10.265625 -1.671875 C -12.140625 -1.671875 -13.882812 -2.144531 -15.5 -3.09375 C -17.113281 -4.039062 -18.394531 -5.316406 -19.34375 -6.921875 C -20.300781 -8.523438 -20.78125 -10.273438 -20.78125 -12.171875 C -20.78125 -14.046875 -20.300781 -15.789062 -19.34375 -17.40625 C -18.394531 -19.019531 -17.113281 -20.300781 -15.5 -21.25 C -13.882812 -22.207031 -12.140625 -22.6875 -10.265625 -22.6875 C -8.367188 -22.6875 -6.613281 -22.210938 -5 -21.265625 C -3.394531 -20.316406 -2.117188 -19.03125 -1.171875 -17.40625 C -0.234375 -15.789062 0.234375 -14.046875 0.234375 -12.171875 C 0.234375 -10.273438 -0.226562 -8.519531 -1.15625 -6.90625 C -2.09375 -5.300781 -3.359375 -4.023438 -4.953125 -3.078125 C -6.554688 -2.140625 -8.328125 -1.671875 -10.265625 -1.671875 Z M -10.234375 -4.515625 C -8.835938 -4.515625 -7.539062 -4.851562 -6.34375 -5.53125 C -5.144531 -6.21875 -4.195312 -7.15625 -3.5 -8.34375 C -2.800781 -9.53125 -2.453125 -10.828125 -2.453125 -12.234375 C -2.453125 -13.628906 -2.796875 -14.910156 -3.484375 -16.078125 C -4.171875 -17.242188 -5.117188 -18.160156 -6.328125 -18.828125 C -7.535156 -19.503906 -8.847656 -19.84375 -10.265625 -19.84375 C -11.691406 -19.84375 -13.007812 -19.5 -14.21875 -18.8125 C -15.425781 -18.132812 -16.378906 -17.207031 -17.078125 -16.03125 C -17.785156 -14.863281 -18.140625 -13.578125 -18.140625 -12.171875 C -18.140625 -10.765625 -17.785156 -9.472656 -17.078125 -8.296875 C -16.367188 -7.128906 -15.40625 -6.207031 -14.1875 -5.53125 C -12.976562 -4.851562 -11.660156 -4.515625 -10.234375 -4.515625 Z M -10.234375 -4.515625 "/></g></g></g><g fill="#000000" fill-opacity="1"><g transform="translate(72.406613, 312.256083)"><g><path d="M 0 -19.25 L 0 -16.5 L -9.015625 -16.5 L -9.015625 -5.71875 L 0 -5.71875 L 0 -2.953125 L -20.5625 -2.953125 L -20.5625 -5.71875 L -11.65625 -5.71875 L -11.65625 -16.5 L -20.5625 -16.5 L -20.5625 -19.25 Z M 0 -19.25 "/></g></g></g><g fill="#000000" fill-opacity="1"><g transform="translate(72.406613, 290.047902)"><g><path d="M -20.5625 -20.875 L 0.6875 -20.875 L 0.6875 -20.78125 L -14.640625 -5.6875 L 0 -5.75 L 0 -2.953125 L -21.1875 -2.953125 L -21.1875 -3.09375 L -5.6875 -18.171875 L -20.5625 -18.109375 Z M -20.5625 -20.875 "/></g></g></g><g fill="#000000" fill-opacity="1"><g transform="translate(72.406613, 266.21889)"><g><path d="M -20.5625 -20.875 L 0.6875 -20.875 L 0.6875 -20.78125 L -14.640625 -5.6875 L 0 -5.75 L 0 -2.953125 L -21.1875 -2.953125 L -21.1875 -3.09375 L -5.6875 -18.171875 L -20.5625 -18.109375 Z M -20.5625 -20.875 "/></g></g></g><g fill="#000000" fill-opacity="1"><g transform="translate(72.406613, 242.389878)"><g><path d="M -20.5625 -18.875 L -6.859375 -11.171875 L 0 -11.171875 L 0 -8.421875 L -6.859375 -8.421875 L -20.5625 -0.796875 L -20.5625 -4.203125 L -9.984375 -9.875 L -20.5625 -15.5 Z M -20.5625 -18.875 "/></g></g></g><g fill="#000000" fill-opacity="1"><g transform="translate(72.406613, 222.712468)"><g/></g></g><g fill="#000000" fill-opacity="1"><g transform="translate(72.406613, 213.72683)"><g><path d="M -21.21875 -23.40625 L 0 -23.40625 L 0 -20.671875 L -13.3125 -20.671875 L -2.59375 -13.109375 L -2.59375 -13.046875 L -12.9375 -5.625 L 0 -5.625 L 0 -2.953125 L -21.21875 -2.953125 L -21.21875 -2.984375 L -6.875 -13.109375 L -21.21875 -23.375 Z M -21.21875 -23.40625 "/></g></g></g><g fill="#000000" fill-opacity="1"><g transform="translate(72.406613, 187.367066)"><g><path d="M -5.40625 -13.734375 L -5.40625 -5.828125 L 0 -3.640625 L 0 -0.90625 L -21.40625 -9.890625 L -21.40625 -10.0625 L 0 -19.046875 L 0 -15.875 Z M -7.796875 -12.796875 L -15.296875 -9.875 L -7.796875 -6.828125 Z M -7.796875 -12.796875 "/></g></g></g><g fill="#000000" fill-opacity="1"><g transform="translate(72.406613, 167.433731)"><g><path d="M 0 -14.28125 L -7.59375 -9.4375 C -7.570312 -9.289062 -7.5625 -9.066406 -7.5625 -8.765625 L -7.5625 -5.71875 L 0 -5.71875 L 0 -2.953125 L -20.5625 -2.953125 L -20.5625 -8.453125 C -20.5625 -9.847656 -20.3125 -11.09375 -19.8125 -12.1875 C -19.320312 -13.289062 -18.597656 -14.15625 -17.640625 -14.78125 C -16.679688 -15.40625 -15.53125 -15.71875 -14.1875 -15.71875 C -12.914062 -15.71875 -11.75 -15.4375 -10.6875 -14.875 C -9.625 -14.320312 -8.820312 -13.46875 -8.28125 -12.3125 L 0 -17.484375 Z M -10.234375 -8.703125 C -10.234375 -10.179688 -10.617188 -11.242188 -11.390625 -11.890625 C -12.171875 -12.546875 -13.066406 -12.875 -14.078125 -12.875 C -14.679688 -12.875 -15.273438 -12.738281 -15.859375 -12.46875 C -16.453125 -12.195312 -16.941406 -11.757812 -17.328125 -11.15625 C -17.722656 -10.5625 -17.921875 -9.8125 -17.921875 -8.90625 L -17.921875 -5.71875 L -10.234375 -5.71875 Z M -10.234375 -8.703125 "/></g></g></g><g fill="#000000" fill-opacity="1"><g transform="translate(72.406613, 148.666258)"><g><path d="M -20.5625 -15.09375 L -17.921875 -15.09375 L -17.921875 -9.578125 L 0 -9.578125 L 0 -6.828125 L -17.921875 -6.828125 L -17.921875 -1.453125 L -20.5625 -1.453125 Z M -20.5625 -15.09375 "/></g></g></g><g fill="#000000" fill-opacity="1"><g transform="translate(72.406613, 132.116751)"><g><path d="M -20.5625 -16.328125 L -17.921875 -16.328125 L -17.921875 -5.71875 L -11.65625 -5.71875 L -11.65625 -15.1875 L -9.015625 -15.1875 L -9.015625 -5.71875 L -2.671875 -5.71875 L -2.671875 -16.71875 L 0 -16.71875 L 0 -2.953125 L -20.5625 -2.953125 Z M -20.5625 -16.328125 "/></g></g></g><g fill="#000000" fill-opacity="1"><g transform="translate(72.406613, 113.548323)"><g><path d="M -20.5625 -20.875 L 0.6875 -20.875 L 0.6875 -20.78125 L -14.640625 -5.6875 L 0 -5.75 L 0 -2.953125 L -21.1875 -2.953125 L -21.1875 -3.09375 L -5.6875 -18.171875 L -20.5625 -18.109375 Z M -20.5625 -20.875 "/></g></g></g><g fill="#000000" fill-opacity="1"><g transform="translate(72.406613, 89.719311)"><g><path d="M -16.890625 -13.59375 C -17.285156 -12.851562 -17.609375 -12.066406 -17.859375 -11.234375 C -18.109375 -10.398438 -18.234375 -9.613281 -18.234375 -8.875 C -18.234375 -7.75 -17.976562 -6.859375 -17.46875 -6.203125 C -16.96875 -5.554688 -16.28125 -5.234375 -15.40625 -5.234375 C -14.5625 -5.234375 -13.867188 -5.613281 -13.328125 -6.375 C -12.785156 -7.144531 -12.25 -8.242188 -11.71875 -9.671875 C -11.332031 -10.734375 -10.914062 -11.628906 -10.46875 -12.359375 C -10.03125 -13.085938 -9.414062 -13.691406 -8.625 -14.171875 C -7.84375 -14.660156 -6.84375 -14.90625 -5.625 -14.90625 C -4.53125 -14.90625 -3.535156 -14.628906 -2.640625 -14.078125 C -1.753906 -13.523438 -1.050781 -12.738281 -0.53125 -11.71875 C -0.0195312 -10.707031 0.234375 -9.519531 0.234375 -8.15625 C 0.234375 -6.882812 0.03125 -5.660156 -0.375 -4.484375 C -0.789062 -3.316406 -1.3125 -2.285156 -1.9375 -1.390625 L -4.125 -2.609375 C -3.59375 -3.316406 -3.140625 -4.160156 -2.765625 -5.140625 C -2.398438 -6.128906 -2.21875 -7.050781 -2.21875 -7.90625 C -2.21875 -9.007812 -2.5 -9.972656 -3.0625 -10.796875 C -3.632812 -11.617188 -4.484375 -12.03125 -5.609375 -12.03125 C -6.554688 -12.03125 -7.304688 -11.679688 -7.859375 -10.984375 C -8.421875 -10.296875 -8.945312 -9.328125 -9.4375 -8.078125 C -9.875 -6.921875 -10.300781 -5.957031 -10.71875 -5.1875 C -11.132812 -4.414062 -11.707031 -3.753906 -12.4375 -3.203125 C -13.164062 -2.660156 -14.082031 -2.390625 -15.1875 -2.390625 C -16.800781 -2.390625 -18.101562 -2.953125 -19.09375 -4.078125 C -20.09375 -5.203125 -20.617188 -6.664062 -20.671875 -8.46875 C -20.671875 -10.6875 -20.125 -12.742188 -19.03125 -14.640625 Z M -16.890625 -13.59375 "/></g></g></g></svg>